<?xml version="1.0" encoding="UTF-8"?><svg id="uuid-568e7714-bda2-473c-9965-e2c5cc71fb94" xmlns="http://www.w3.org/2000/svg" viewBox="0 0 24 24"><g id="uuid-c19eced0-bb11-415e-a832-06cd7e1dc2b0"><g id="uuid-b82d38fd-7f5f-4046-986a-64081691c5b2"><circle cx="12" cy="12" r="11.5" style="fill:#fff; stroke:#fff; stroke-miterlimit:10;"/><path d="M10.303,13.083l1.369,1.823c.162.216.487.216.649,0l1.369-1.823c.081-.109.213-.173.348-.157,2.052.223,3.648,1.96,3.648,4.07,0,.429-.348.78-.779.78H7.092c-.429,0-.779-.348-.779-.78,0-2.11,1.597-3.849,3.646-4.073.134-.013.267.048.348.157l-.003.003ZM14.814,6.4c.581,1.006.581,2.244,0,3.25-.58,1.006-1.653,1.625-2.814,1.625s-2.234-.619-2.814-1.625c-.581-1.006-.581-2.244,0-3.25.58-1.006,1.653-1.625,2.814-1.625s2.234.619,2.814,1.625Z" style="fill:#1d3159;"/></g></g></svg>