<?xml version="1.0" encoding="UTF-8"?><svg id="uuid-7cc133c9-a902-47b6-8ffa-73d116d10c99" xmlns="http://www.w3.org/2000/svg" viewBox="0 0 25 25.952"><g id="uuid-2c705a28-dfa3-4139-a689-434346675095"><g id="uuid-40d26e59-3eaf-49b5-841d-00d7e6b9aad9"><path d="M24.658,22.534c.228.228.342.505.342.83s-.114.602-.342.83l-1.367,1.367c-.228.228-.505.342-.83.342s-.603-.114-.83-.342l-4.883-4.883c-.228-.228-.342-.505-.342-.83v-.781c-1.823,1.432-3.906,2.148-6.25,2.148-1.855,0-3.557-.456-5.103-1.367s-2.775-2.14-3.687-3.687-1.367-3.247-1.367-5.103.456-3.556,1.367-5.103,2.141-2.775,3.687-3.687,3.247-1.367,5.103-1.367,3.557.456,5.103,1.367,2.775,2.14,3.687,3.687,1.367,3.247,1.367,5.103c0,2.344-.716,4.427-2.148,6.25h.781c.325,0,.603.114.83.342l4.883,4.883ZM10.156,17.31c1.14,0,2.189-.277,3.149-.83s1.717-1.31,2.271-2.271.83-2.01.83-3.149-.276-2.189-.83-3.149-1.311-1.717-2.271-2.271-2.01-.83-3.149-.83-2.189.277-3.149.83-1.717,1.31-2.271,2.271-.83,2.01-.83,3.149.276,2.189.83,3.149,1.311,1.717,2.271,2.271,2.01.83,3.149.83Z" style="fill:#fff;"/></g></g></svg>